<svg width="20" height="20" viewBox="0 0 20 20" fill="none" xmlns="http://www.w3.org/2000/svg">
<path fill-rule="evenodd" clip-rule="evenodd" d="M6.50119 1.9967C6.77738 1.9967 7.00128 2.2206 7.00128 2.4968V3.99707H13.0024V2.4968C13.0024 2.2206 13.2263 1.9967 13.5025 1.9967C13.7787 1.9967 14.0026 2.2206 14.0026 2.4968V3.99707H16.503C17.3316 3.99707 18.0033 4.66877 18.0033 5.49734V16.4994C18.0033 17.3279 17.3316 17.9996 16.503 17.9996H3.50064C2.67206 17.9996 2.00037 17.3279 2.00037 16.4994V5.49734C2.00037 4.66877 2.67206 3.99707 3.50064 3.99707H6.0011V2.4968C6.0011 2.2206 6.225 1.9967 6.50119 1.9967ZM6.0011 4.99725H3.50064C3.22445 4.99725 3.00055 5.22115 3.00055 5.49734V7.9978H17.0031V5.49734C17.0031 5.22115 16.7792 4.99725 16.503 4.99725H14.0026V5.99744C14.0026 6.27363 13.7787 6.49753 13.5025 6.49753C13.2263 6.49753 13.0024 6.27363 13.0024 5.99744V4.99725H7.00128V5.99744C7.00128 6.27363 6.77738 6.49753 6.50119 6.49753C6.225 6.49753 6.0011 6.27363 6.0011 5.99744V4.99725ZM17.0031 8.99799H3.00055V16.4994C3.00055 16.7756 3.22445 16.9995 3.50064 16.9995H16.503C16.7792 16.9995 17.0031 16.7756 17.0031 16.4994V8.99799Z" fill="black"/>
</svg>
