<svg width="21" height="20" viewBox="0 0 21 20" fill="none" xmlns="http://www.w3.org/2000/svg">
<path fill-rule="evenodd" clip-rule="evenodd" d="M17.5475 2.77727C17.4164 2.77724 17.2894 2.82362 17.1892 2.90821C17.089 2.99275 17.0219 3.11001 16.9999 3.23924L15.4573 12.3064C15.4568 12.3098 15.4562 12.3131 15.4556 12.3164L15.047 14.7182C14.9811 15.1063 14.78 15.4585 14.4793 15.7125C14.1785 15.9664 13.7976 16.1057 13.404 16.1057H6.05662C5.74986 16.1057 5.50118 15.857 5.50118 15.5503C5.50118 15.2435 5.74986 14.9948 6.05662 14.9948H13.404C13.5352 14.9948 13.6623 14.9484 13.7625 14.8637C13.8628 14.7791 13.9298 14.6617 13.9518 14.5323L14.2511 12.773H5.96923C5.34999 12.773 4.74847 12.5659 4.26037 12.1849C3.77227 11.8038 3.42554 11.2705 3.27527 10.6698L2.20141 6.37432C2.16044 6.21051 2.15734 6.03944 2.19238 5.87426C2.22742 5.70905 2.29967 5.554 2.40363 5.42091C2.50759 5.28782 2.64053 5.18018 2.79234 5.10618C2.94405 5.03223 3.11062 4.99381 3.2794 4.99386H15.5745L15.9047 3.05293C15.9708 2.66506 16.1721 2.31293 16.4728 2.05919C16.7735 1.80547 17.1542 1.66633 17.5476 1.66638H18.2764C18.5831 1.66638 18.8318 1.91506 18.8318 2.22183C18.8318 2.52859 18.5831 2.77727 18.2764 2.77727H17.5475ZM15.3855 6.10475H3.2794L4.35295 10.4002C4.44312 10.7606 4.65117 11.0806 4.94401 11.3092C5.23685 11.5379 5.59771 11.6621 5.96923 11.6622H14.4401L15.3855 6.10475ZM6.85609 16.9052C7.01234 16.7489 7.22426 16.6611 7.44523 16.6611C7.61001 16.6611 7.7711 16.71 7.90811 16.8016C8.04513 16.8931 8.15192 17.0232 8.21498 17.1755C8.27804 17.3277 8.29453 17.4952 8.26239 17.6569C8.23024 17.8185 8.15089 17.9669 8.03437 18.0834C7.91784 18.2 7.76939 18.2793 7.60777 18.3115C7.44616 18.3436 7.27863 18.3271 7.12639 18.2641C6.97415 18.201 6.84403 18.0942 6.75248 17.9572C6.66093 17.8202 6.61206 17.6591 6.61206 17.4943C6.61206 17.2733 6.69984 17.0614 6.85609 16.9052ZM12.4105 16.9052C12.5668 16.7489 12.7787 16.6611 12.9997 16.6611C13.1645 16.6611 13.3255 16.71 13.4626 16.8016C13.5996 16.8931 13.7064 17.0232 13.7694 17.1755C13.8325 17.3277 13.849 17.4952 13.8168 17.6569C13.7847 17.8185 13.7053 17.9669 13.5888 18.0834C13.4723 18.2 13.3238 18.2793 13.1622 18.3115C13.0006 18.3436 12.8331 18.3271 12.6808 18.2641C12.5286 18.201 12.3985 18.0942 12.3069 17.9572C12.2154 17.8202 12.1665 17.6591 12.1665 17.4943C12.1665 17.2733 12.2543 17.0614 12.4105 16.9052Z" fill="black"/>
</svg>
