<svg width="18" height="18" viewBox="0 0 18 18" fill="none" xmlns="http://www.w3.org/2000/svg">
<path fill-rule="evenodd" clip-rule="evenodd" d="M1.63732 1.63732C1.82041 1.45423 2.11725 1.45423 2.30034 1.63732L9.00128 8.33826L15.7022 1.63732C15.8853 1.45423 16.1822 1.45423 16.3652 1.63732C16.5483 1.82041 16.5483 2.11725 16.3652 2.30034L9.66431 9.00128L16.3652 15.7022C16.5483 15.8853 16.5483 16.1822 16.3652 16.3652C16.1822 16.5483 15.8853 16.5483 15.7022 16.3652L9.00128 9.66431L2.30034 16.3652C2.11725 16.5483 1.82041 16.5483 1.63732 16.3652C1.45423 16.1822 1.45423 15.8853 1.63732 15.7022L8.33826 9.00128L1.63732 2.30034C1.45423 2.11725 1.45423 1.82041 1.63732 1.63732Z" fill="white"/>
</svg>
