<svg width="20" height="20" viewBox="0 0 20 20" fill="none" xmlns="http://www.w3.org/2000/svg">
<g clip-path="url(#clip0_2237_1501)">
<path d="M16.5446 6.12405L16.9866 6.566C16.7912 6.76135 16.5263 6.87109 16.25 6.87109H15.1583C14.9506 6.87109 14.7513 6.95362 14.6044 7.10053C14.4575 7.24743 14.375 7.44667 14.375 7.65443V8.53776H16.1899H16.1917V9.16276C16.2509 9.16233 16.3095 9.17452 16.3636 9.19851C16.4177 9.22251 16.4661 9.25776 16.5055 9.30191C16.5449 9.34606 16.5745 9.39811 16.5922 9.45458L16.5446 6.12405ZM16.5446 6.12405L16.9866 6.566C17.1819 6.37064 17.2917 6.10569 17.2917 5.82943V3.32943C17.2917 3.05316 17.1819 2.78821 16.9866 2.59286C16.7912 2.39751 16.5263 2.28776 16.25 2.28776H15.1583C13.735 2.28776 12.37 2.85318 11.3635 3.85962C10.3571 4.86607 9.79167 6.2311 9.79167 7.65443V8.53776H8.33333C8.05707 8.53776 7.79211 8.64751 7.59676 8.84286C7.40141 9.03821 7.29167 9.30316 7.29167 9.57943V12.0794C7.29167 12.3557 7.40141 12.6206 7.59676 12.816C7.79211 13.0113 8.05707 13.1211 8.33333 13.1211H9.79167V19.3711H0.833333C0.77808 19.3711 0.725089 19.3491 0.68602 19.3101C0.646949 19.271 0.625 19.218 0.625 19.1628V0.829427C0.625 0.774174 0.646949 0.721183 0.686019 0.682113C0.725089 0.643043 0.77808 0.621094 0.833333 0.621094H19.1667C19.2219 0.621094 19.2749 0.643043 19.314 0.682113C19.3531 0.721183 19.375 0.774173 19.375 0.829427V19.1628C19.375 19.218 19.3531 19.271 19.314 19.3101C19.2749 19.3491 19.2219 19.3711 19.1667 19.3711H14.375V13.1211H15.8732H15.875V12.4961L16.5446 6.12405Z" fill="white" stroke="white" stroke-width="1.25"/>
</g>
<defs>
<clipPath id="clip0_2237_1501">
<rect width="20" height="20" fill="white" transform="translate(0 -0.00390625)"/>
</clipPath>
</defs>
</svg>
