<svg width="21" height="20" viewBox="0 0 21 20" fill="none" xmlns="http://www.w3.org/2000/svg">
<g clip-path="url(#clip0_2225_1084)">
<path d="M10.5004 18.1993L2.51182 9.8675C1.80973 9.16596 1.34633 8.26117 1.18736 7.28147C1.02839 6.30177 1.18191 5.29688 1.62615 4.40933C1.96113 3.73955 2.45047 3.15896 3.05384 2.71538C3.65721 2.2718 4.35735 1.97794 5.09656 1.85801C5.83577 1.73807 6.5929 1.7955 7.30556 2.02556C8.01823 2.25561 8.66603 2.65171 9.19559 3.18122L10.5004 4.48515L11.8051 3.18122C12.3347 2.65171 12.9825 2.25561 13.6951 2.02556C14.4078 1.7955 15.1649 1.73807 15.9042 1.85801C16.6434 1.97794 17.3435 2.2718 17.9469 2.71538C18.5502 3.15896 19.0396 3.73955 19.3746 4.40933C19.8182 5.29654 19.9715 6.30083 19.8127 7.27997C19.6539 8.25912 19.191 9.16348 18.4897 9.865L10.5004 18.1993Z" stroke="black" stroke-width="1.5" stroke-linecap="round" stroke-linejoin="round"/>
</g>
<defs>
<clipPath id="clip0_2225_1084">
<rect width="19.9963" height="19.9963" fill="white" transform="translate(0.501831)"/>
</clipPath>
</defs>
</svg>
