<svg width="20" height="20" viewBox="0 0 20 20" fill="none" xmlns="http://www.w3.org/2000/svg">
<g clip-path="url(#clip0_2237_1489)">
<path d="M14.3666 0.621094H5.61658C2.85515 0.621094 0.616577 2.85967 0.616577 5.62109V14.3711C0.616577 17.1325 2.85515 19.3711 5.61658 19.3711H14.3666C17.128 19.3711 19.3666 17.1325 19.3666 14.3711V5.62109C19.3666 2.85967 17.128 0.621094 14.3666 0.621094Z" fill="white" stroke="white" stroke-width="1.21875" stroke-linecap="round" stroke-linejoin="round"/>
<path d="M9.99162 14.1624C12.2928 14.1624 14.1583 12.297 14.1583 9.99577C14.1583 7.69458 12.2928 5.8291 9.99162 5.8291C7.69043 5.8291 5.82495 7.69458 5.82495 9.99577C5.82495 12.297 7.69043 14.1624 9.99162 14.1624Z" stroke="black" stroke-width="1.21875" stroke-linecap="round" stroke-linejoin="round"/>
<path d="M16.1165 4.28809C16.1165 4.39859 16.0726 4.50457 15.9945 4.58271C15.9164 4.66085 15.8104 4.70475 15.6999 4.70475C15.5894 4.70475 15.4834 4.66085 15.4052 4.58271C15.3271 4.50457 15.2832 4.39859 15.2832 4.28809" stroke="black" stroke-width="1.21875" stroke-linecap="round" stroke-linejoin="round"/>
<path d="M15.2832 4.28776C15.2832 4.17725 15.3271 4.07127 15.4052 3.99313C15.4834 3.91499 15.5894 3.87109 15.6999 3.87109C15.8104 3.87109 15.9164 3.91499 15.9945 3.99313C16.0726 4.07127 16.1165 4.17725 16.1165 4.28776" stroke="black" stroke-width="1.21875" stroke-linecap="round" stroke-linejoin="round"/>
</g>
<defs>
<clipPath id="clip0_2237_1489">
<rect width="20" height="20" fill="white" transform="translate(0 -0.00390625)"/>
</clipPath>
</defs>
</svg>
