<svg width="18" height="18" viewBox="0 0 18 18" fill="none" xmlns="http://www.w3.org/2000/svg">
<g clip-path="url(#clip0_2225_1073)">
<path fill-rule="evenodd" clip-rule="evenodd" d="M9.00004 4.46298C7.88685 4.46298 6.98443 5.3654 6.98443 6.47859C6.98443 7.59177 7.88685 8.49419 9.00004 8.49419C10.1132 8.49419 11.0156 7.59177 11.0156 6.47859C11.0156 5.3654 10.1132 4.46298 9.00004 4.46298ZM5.97663 6.47859C5.97663 4.8088 7.33026 3.45518 9.00004 3.45518C10.6698 3.45518 12.0234 4.8088 12.0234 6.47859C12.0234 8.14837 10.6698 9.502 9.00004 9.502C7.33026 9.502 5.97663 8.14837 5.97663 6.47859Z" fill="black"/>
<path fill-rule="evenodd" clip-rule="evenodd" d="M9.00004 1.94347C7.79725 1.94347 6.64373 2.42128 5.79323 3.27178C4.94273 4.12228 4.46493 5.2758 4.46493 6.47859C4.46493 6.95315 4.64832 7.66817 4.98348 8.54789C5.31282 9.41233 5.76766 10.3831 6.26482 11.3488C7.25917 13.28 8.40438 15.155 9.00003 16.053C9.59569 15.155 10.7409 13.28 11.7353 11.3488C12.2324 10.3831 12.6873 9.41233 13.0166 8.54789C13.3518 7.66817 13.5352 6.95315 13.5352 6.47859C13.5352 5.2758 13.0573 4.12228 12.2069 3.27178C11.3564 2.42128 10.2028 1.94347 9.00004 1.94347ZM5.08061 2.55915C6.1201 1.51965 7.52997 0.935669 9.00004 0.935669C10.4701 0.935669 11.88 1.51965 12.9195 2.55915C13.959 3.59865 14.543 5.00851 14.543 6.47859C14.543 7.14855 14.3002 8.0094 13.9584 8.90669C13.6107 9.81926 13.1376 10.8266 12.6313 11.8101C11.6186 13.777 10.4543 15.6839 9.83987 16.6101C9.74795 16.7487 9.62315 16.8624 9.47661 16.941C9.33007 17.0196 9.16634 17.0608 9.00004 17.0608C8.83374 17.0608 8.67001 17.0196 8.52347 16.941C8.37693 16.8624 8.25213 16.7487 8.16021 16.6101C7.54583 15.6839 6.38149 13.777 5.3688 11.8101C4.86244 10.8266 4.38939 9.81926 4.04171 8.90669C3.69986 8.0094 3.45712 7.14855 3.45712 6.47859C3.45712 5.00851 4.04111 3.59865 5.08061 2.55915Z" fill="black"/>
</g>
<defs>
<clipPath id="clip0_2225_1073">
<rect width="18" height="18" fill="white" transform="translate(0 -0.00183105)"/>
</clipPath>
</defs>
</svg>
