<svg width="21" height="20" viewBox="0 0 21 20" fill="none" xmlns="http://www.w3.org/2000/svg">
<path fill-rule="evenodd" clip-rule="evenodd" d="M14.1444 6.37541C12.9474 3.55888 9.69377 2.246 6.87724 3.44299C4.06071 4.63998 2.74783 7.89359 3.94482 10.7101C5.14182 13.5266 8.39542 14.8395 11.2119 13.6425C11.8727 13.3617 12.4507 12.9677 12.933 12.4927C12.9423 12.4816 12.9521 12.4709 12.9625 12.4605C12.9728 12.4503 12.9834 12.4405 12.9943 12.4313C14.5206 10.8798 15.0485 8.50291 14.1444 6.37541ZM14.0108 12.802C15.5758 10.9744 16.0695 8.34889 15.0646 5.98433C13.6516 2.65959 9.8109 1.1098 6.48616 2.52279C3.16142 3.93577 1.61164 7.77645 3.02462 11.1012C4.4376 14.4259 8.27828 15.9757 11.603 14.5627C12.2374 14.2931 12.8072 13.9351 13.3041 13.5092L17.6478 17.8535C17.843 18.0488 18.1595 18.0488 18.3548 17.8536C18.55 17.6584 18.5501 17.3418 18.3548 17.1466L14.0108 12.802Z" fill="black"/>
</svg>
