<svg width="20" height="20" viewBox="0 0 20 20" fill="none" xmlns="http://www.w3.org/2000/svg">
<mask id="path-1-inside-1_2237_1497" fill="white">
<path d="M19.433 5.36224C19.4923 5.31295 19.5367 5.24818 19.5614 5.17512C19.5861 5.10207 19.59 5.02361 19.5727 4.94846C19.5554 4.87331 19.5176 4.80443 19.4635 4.74949C19.4094 4.69454 19.3412 4.65568 19.2663 4.63724L18.608 4.47057C18.5481 4.45559 18.4923 4.42749 18.4446 4.38832C18.397 4.34915 18.3586 4.29987 18.3323 4.24406C18.306 4.18824 18.2924 4.12728 18.2925 4.06557C18.2926 4.00386 18.3064 3.94295 18.333 3.88724L18.6996 3.14557C18.7343 3.0737 18.7475 2.9934 18.7379 2.91421C18.7282 2.83502 18.696 2.76026 18.6451 2.69883C18.5942 2.6374 18.5268 2.59187 18.4507 2.56766C18.3747 2.54344 18.2933 2.54156 18.2163 2.56224L16.5496 3.02891C16.4875 3.04702 16.4221 3.05042 16.3584 3.03885C16.2948 3.02728 16.2347 3.00105 16.183 2.96224C15.4617 2.42131 14.5845 2.12891 13.683 2.12891C12.5779 2.12891 11.5181 2.56789 10.7367 3.34929C9.95528 4.1307 9.51629 5.1905 9.51629 6.29557V6.59557C9.51666 6.64676 9.49818 6.69628 9.46437 6.73471C9.43055 6.77313 9.38377 6.79777 9.33296 6.80391C6.99129 7.07891 4.74963 5.88724 2.33296 3.10391C2.28046 3.04601 2.21302 3.00371 2.13804 2.98165C2.06305 2.9596 1.98345 2.95865 1.90796 2.97891C1.83996 3.01016 1.78163 3.05916 1.7391 3.12075C1.69658 3.18234 1.67143 3.25424 1.66629 3.32891C1.33251 4.70002 1.46746 6.14343 2.04963 7.42891C2.06685 7.463 2.07437 7.50118 2.07136 7.53926C2.06835 7.57734 2.05493 7.61386 2.03257 7.64483C2.0102 7.67579 1.97975 7.70002 1.94455 7.71485C1.90935 7.72967 1.87074 7.73454 1.83296 7.72891L0.899627 7.54557C0.833345 7.53492 0.76547 7.54043 0.701779 7.56165C0.638088 7.58287 0.580468 7.61917 0.533823 7.66745C0.487178 7.71573 0.45289 7.77457 0.433878 7.83895C0.414866 7.90334 0.411692 7.97136 0.424627 8.03724C0.496576 8.67678 0.711439 9.29195 1.05331 9.83721C1.39518 10.3825 1.85531 10.8439 2.39963 11.1872C2.43485 11.2043 2.46456 11.2309 2.48534 11.2641C2.50613 11.2973 2.51715 11.3356 2.51715 11.3747C2.51715 11.4139 2.50613 11.4522 2.48534 11.4854C2.46456 11.5185 2.43485 11.5452 2.39963 11.5622L1.95796 11.7372C1.90432 11.7587 1.85574 11.7912 1.81531 11.8325C1.77488 11.8737 1.74348 11.923 1.7231 11.9771C1.70273 12.0311 1.69382 12.0889 1.69695 12.1466C1.70008 12.2043 1.71518 12.2607 1.74129 12.3122C1.98554 12.8467 2.35576 13.3139 2.82021 13.6739C3.28466 14.0338 3.82948 14.2757 4.40796 14.3789C4.44818 14.3935 4.48293 14.4201 4.50748 14.4552C4.53204 14.4902 4.54522 14.532 4.54522 14.5747C4.54522 14.6175 4.53204 14.6593 4.50748 14.6943C4.48293 14.7293 4.44818 14.756 4.40796 14.7706C3.27493 15.2392 2.05901 15.4744 0.83296 15.4622C0.722453 15.4401 0.607693 15.4628 0.513925 15.5254C0.420157 15.5879 0.355062 15.6851 0.33296 15.7956C0.310859 15.9061 0.333562 16.0208 0.396074 16.1146C0.458586 16.2084 0.555787 16.2735 0.666294 16.2956C2.78925 17.3024 5.10061 17.8505 7.44963 17.9039C9.51584 17.9354 11.5453 17.3556 13.283 16.2372C14.7123 15.2831 15.8834 13.9902 16.6918 12.4736C17.5002 10.9571 17.9209 9.26412 17.9163 7.54557V6.82057C17.9168 6.76006 17.9305 6.70039 17.9564 6.64571C17.9823 6.59102 18.0198 6.54263 18.0663 6.50391L19.433 5.36224Z"/>
</mask>
<path d="M19.433 5.36224C19.4923 5.31295 19.5367 5.24818 19.5614 5.17512C19.5861 5.10207 19.59 5.02361 19.5727 4.94846C19.5554 4.87331 19.5176 4.80443 19.4635 4.74949C19.4094 4.69454 19.3412 4.65568 19.2663 4.63724L18.608 4.47057C18.5481 4.45559 18.4923 4.42749 18.4446 4.38832C18.397 4.34915 18.3586 4.29987 18.3323 4.24406C18.306 4.18824 18.2924 4.12728 18.2925 4.06557C18.2926 4.00386 18.3064 3.94295 18.333 3.88724L18.6996 3.14557C18.7343 3.0737 18.7475 2.9934 18.7379 2.91421C18.7282 2.83502 18.696 2.76026 18.6451 2.69883C18.5942 2.6374 18.5268 2.59187 18.4507 2.56766C18.3747 2.54344 18.2933 2.54156 18.2163 2.56224L16.5496 3.02891C16.4875 3.04702 16.4221 3.05042 16.3584 3.03885C16.2948 3.02728 16.2347 3.00105 16.183 2.96224C15.4617 2.42131 14.5845 2.12891 13.683 2.12891C12.5779 2.12891 11.5181 2.56789 10.7367 3.34929C9.95528 4.1307 9.51629 5.1905 9.51629 6.29557V6.59557C9.51666 6.64676 9.49818 6.69628 9.46437 6.73471C9.43055 6.77313 9.38377 6.79777 9.33296 6.80391C6.99129 7.07891 4.74963 5.88724 2.33296 3.10391C2.28046 3.04601 2.21302 3.00371 2.13804 2.98165C2.06305 2.9596 1.98345 2.95865 1.90796 2.97891C1.83996 3.01016 1.78163 3.05916 1.7391 3.12075C1.69658 3.18234 1.67143 3.25424 1.66629 3.32891C1.33251 4.70002 1.46746 6.14343 2.04963 7.42891C2.06685 7.463 2.07437 7.50118 2.07136 7.53926C2.06835 7.57734 2.05493 7.61386 2.03257 7.64483C2.0102 7.67579 1.97975 7.70002 1.94455 7.71485C1.90935 7.72967 1.87074 7.73454 1.83296 7.72891L0.899627 7.54557C0.833345 7.53492 0.76547 7.54043 0.701779 7.56165C0.638088 7.58287 0.580468 7.61917 0.533823 7.66745C0.487178 7.71573 0.45289 7.77457 0.433878 7.83895C0.414866 7.90334 0.411692 7.97136 0.424627 8.03724C0.496576 8.67678 0.711439 9.29195 1.05331 9.83721C1.39518 10.3825 1.85531 10.8439 2.39963 11.1872C2.43485 11.2043 2.46456 11.2309 2.48534 11.2641C2.50613 11.2973 2.51715 11.3356 2.51715 11.3747C2.51715 11.4139 2.50613 11.4522 2.48534 11.4854C2.46456 11.5185 2.43485 11.5452 2.39963 11.5622L1.95796 11.7372C1.90432 11.7587 1.85574 11.7912 1.81531 11.8325C1.77488 11.8737 1.74348 11.923 1.7231 11.9771C1.70273 12.0311 1.69382 12.0889 1.69695 12.1466C1.70008 12.2043 1.71518 12.2607 1.74129 12.3122C1.98554 12.8467 2.35576 13.3139 2.82021 13.6739C3.28466 14.0338 3.82948 14.2757 4.40796 14.3789C4.44818 14.3935 4.48293 14.4201 4.50748 14.4552C4.53204 14.4902 4.54522 14.532 4.54522 14.5747C4.54522 14.6175 4.53204 14.6593 4.50748 14.6943C4.48293 14.7293 4.44818 14.756 4.40796 14.7706C3.27493 15.2392 2.05901 15.4744 0.83296 15.4622C0.722453 15.4401 0.607693 15.4628 0.513925 15.5254C0.420157 15.5879 0.355062 15.6851 0.33296 15.7956C0.310859 15.9061 0.333562 16.0208 0.396074 16.1146C0.458586 16.2084 0.555787 16.2735 0.666294 16.2956C2.78925 17.3024 5.10061 17.8505 7.44963 17.9039C9.51584 17.9354 11.5453 17.3556 13.283 16.2372C14.7123 15.2831 15.8834 13.9902 16.6918 12.4736C17.5002 10.9571 17.9209 9.26412 17.9163 7.54557V6.82057C17.9168 6.76006 17.9305 6.70039 17.9564 6.64571C17.9823 6.59102 18.0198 6.54263 18.0663 6.50391L19.433 5.36224Z" fill="white"/>
<path d="M19.433 5.36224L18.6339 4.40095L18.6316 4.40292L19.433 5.36224ZM19.2663 4.63724L18.9595 5.84904L18.9673 5.85095L19.2663 4.63724ZM18.608 4.47057L18.9147 3.2588L18.9115 3.258L18.608 4.47057ZM18.333 3.88724L17.2124 3.33326L17.2083 3.34151L17.2044 3.34982L18.333 3.88724ZM18.6996 3.14557L19.8202 3.69958L19.8257 3.68828L18.6996 3.14557ZM18.2163 2.56224L17.8923 1.35488L17.8793 1.35853L18.2163 2.56224ZM16.5496 3.02891L16.2126 1.82513L16.1996 1.82891L16.5496 3.02891ZM16.183 2.96224L16.933 1.96224L16.183 2.96224ZM13.683 2.12891V0.878906V2.12891ZM9.51629 6.29557H8.26629H9.51629ZM9.51629 6.59557H8.26626L8.26633 6.6046L9.51629 6.59557ZM9.33296 6.80391L9.47876 8.04538L9.48293 8.04488L9.33296 6.80391ZM2.33296 3.10391L3.27683 2.28438L3.26801 2.27423L3.25898 2.26427L2.33296 3.10391ZM1.90796 2.97891L1.58398 1.77162L1.48192 1.79901L1.38591 1.84314L1.90796 2.97891ZM1.66629 3.32891L2.88082 3.62457L2.90603 3.52101L2.91335 3.41467L1.66629 3.32891ZM2.04963 7.42891L0.910955 7.94459L0.921931 7.96882L0.933927 7.99257L2.04963 7.42891ZM1.83296 7.72891L1.59203 8.95547L1.62023 8.96101L1.64866 8.96524L1.83296 7.72891ZM0.899627 7.54557L1.14056 6.31901L1.11937 6.31485L1.09805 6.31142L0.899627 7.54557ZM0.424627 8.03724L1.66679 7.89749L1.66107 7.84662L1.6512 7.79639L0.424627 8.03724ZM2.39963 11.1872L1.73271 12.2445L1.79184 12.2818L1.85476 12.3122L2.39963 11.1872ZM2.39963 11.5622L2.86008 12.7243L2.90297 12.7073L2.94449 12.6872L2.39963 11.5622ZM1.95796 11.7372L1.4975 10.5751L1.49282 10.577L1.95796 11.7372ZM1.74129 12.3122L2.87819 11.7927L2.86777 11.7699L2.85643 11.7475L1.74129 12.3122ZM4.40796 14.3789L4.83443 13.2039L4.73332 13.1672L4.62743 13.1483L4.40796 14.3789ZM4.40796 14.7706L3.98149 13.5956L3.95564 13.605L3.93022 13.6155L4.40796 14.7706ZM0.83296 15.4622L0.587815 16.688L0.703034 16.711L0.820529 16.7122L0.83296 15.4622ZM0.666294 16.2956L1.20195 15.1662L1.06263 15.1001L0.911439 15.0698L0.666294 16.2956ZM7.44963 17.9039L7.4212 19.1536L7.43056 19.1538L7.44963 17.9039ZM13.283 16.2372L13.9594 17.2884L13.9682 17.2827L13.977 17.2769L13.283 16.2372ZM17.9163 7.54557H16.6663L16.6663 7.54892L17.9163 7.54557ZM17.9163 6.82057L16.6663 6.81007V6.82057H17.9163ZM18.0663 6.50391L18.8662 7.46441L18.8677 7.46322L18.0663 6.50391ZM20.232 6.32353C20.4692 6.12638 20.647 5.86729 20.7457 5.57507L18.3771 4.77518C18.4264 4.62907 18.5154 4.49952 18.6339 4.40095L20.232 6.32353ZM20.7457 5.57507C20.8444 5.28285 20.86 4.96898 20.7909 4.66841L18.3545 5.22851C18.3199 5.07823 18.3278 4.92129 18.3771 4.77518L20.7457 5.57507ZM20.7909 4.66841C20.7218 4.36782 20.5707 4.0923 20.3543 3.87252L18.5728 5.62645C18.4646 5.51656 18.389 5.3788 18.3545 5.22851L20.7909 4.66841ZM20.3543 3.87252C20.1379 3.65274 19.8648 3.49731 19.5653 3.42353L18.9673 5.85095C18.8175 5.81406 18.681 5.73634 18.5728 5.62645L20.3543 3.87252ZM19.5731 3.42547L18.9147 3.2588L18.3012 5.68234L18.9595 5.84901L19.5731 3.42547ZM18.9115 3.258C19.0312 3.28797 19.1428 3.34416 19.2382 3.4225L17.6511 5.35413C17.8418 5.51083 18.0649 5.62321 18.3044 5.68315L18.9115 3.258ZM19.2382 3.4225C19.3335 3.50085 19.4103 3.5994 19.4629 3.71103L17.2016 4.77708C17.3069 5.00034 17.4604 5.19744 17.6511 5.35413L19.2382 3.4225ZM19.4629 3.71103C19.5155 3.82265 19.5427 3.94458 19.5425 4.068L17.0425 4.06314C17.042 4.30997 17.0964 4.55383 17.2016 4.77708L19.4629 3.71103ZM19.5425 4.068C19.5422 4.19143 19.5146 4.31324 19.4615 4.42466L17.2044 3.34982C17.0983 3.57266 17.043 3.8163 17.0425 4.06314L19.5425 4.068ZM19.4535 4.44122L19.8202 3.69955L17.5791 2.5916L17.2124 3.33326L19.4535 4.44122ZM19.8257 3.68828C19.9642 3.40081 20.0173 3.0796 19.9787 2.76283L17.4971 3.06559C17.4778 2.9072 17.5043 2.7466 17.5736 2.60286L19.8257 3.68828ZM19.9787 2.76283C19.94 2.44605 19.8113 2.14704 19.6076 1.90131L17.6826 3.49635C17.5808 3.37349 17.5164 3.22398 17.4971 3.06559L19.9787 2.76283ZM19.6076 1.90131C19.404 1.65557 19.1342 1.47346 18.8301 1.37661L18.0714 3.7587C17.9193 3.71027 17.7844 3.61922 17.6826 3.49635L19.6076 1.90131ZM18.8301 1.37661C18.526 1.27976 18.2006 1.27224 17.8923 1.35495L18.5403 3.76953C18.3861 3.81088 18.2234 3.80712 18.0714 3.7587L18.8301 1.37661ZM17.8793 1.35853L16.2126 1.8252L16.8867 4.23261L18.5533 3.76594L17.8793 1.35853ZM16.1996 1.82891C16.3238 1.79268 16.4548 1.78587 16.582 1.80901L16.1348 4.26869C16.3894 4.31497 16.6512 4.30135 16.8996 4.22891L16.1996 1.82891ZM16.582 1.80901C16.7093 1.83216 16.8295 1.88462 16.933 1.96224L15.433 3.96224C15.64 4.11749 15.8803 4.2224 16.1348 4.26869L16.582 1.80901ZM16.933 1.96224C15.9954 1.25904 14.855 0.878906 13.683 0.878906V3.37891C14.314 3.37891 14.9281 3.58359 15.433 3.96224L16.933 1.96224ZM13.683 0.878906C12.2464 0.878906 10.8686 1.44959 9.8528 2.46541L11.6206 4.23318C12.1675 3.6862 12.9094 3.37891 13.683 3.37891V0.878906ZM9.8528 2.46541C8.83698 3.48123 8.26629 4.85898 8.26629 6.29557H10.7663C10.7663 5.52202 11.0736 4.78016 11.6206 4.23318L9.8528 2.46541ZM8.26629 6.29557V6.59557H10.7663V6.29557H8.26629ZM8.26633 6.6046C8.26448 6.34869 8.3569 6.10105 8.52597 5.90892L10.4028 7.56049C10.6395 7.29152 10.7688 6.94482 10.7663 6.58654L8.26633 6.6046ZM8.52597 5.90892C8.69504 5.7168 8.92892 5.59364 9.18299 5.56293L9.48293 8.04488C9.83863 8.00189 10.1661 7.82947 10.4028 7.56049L8.52597 5.90892ZM9.18717 5.56244C7.45104 5.76632 5.58323 4.94073 3.27683 2.28438L1.3891 3.92343C3.91602 6.83375 6.53154 8.39149 9.47875 8.04537L9.18717 5.56244ZM3.25898 2.26427C3.05207 2.03608 2.78625 1.86936 2.49074 1.78245L1.78533 4.18086C1.63978 4.13805 1.50885 4.05594 1.40694 3.94354L3.25898 2.26427ZM2.49074 1.78245C2.19523 1.69553 1.88148 1.69179 1.58398 1.77162L2.23194 4.18619C2.08541 4.22551 1.93088 4.22367 1.78533 4.18086L2.49074 1.78245ZM1.38591 1.84314C1.1139 1.96817 0.880583 2.16416 0.710484 2.41051L2.76773 3.83099C2.68268 3.95416 2.56602 4.05216 2.43001 4.11467L1.38591 1.84314ZM0.710484 2.41051C0.540384 2.65686 0.439779 2.94448 0.419239 3.24314L2.91335 3.41467C2.90308 3.564 2.85278 3.70781 2.76773 3.83099L0.710484 2.41051ZM0.451764 3.03324C0.0519263 4.67569 0.213584 6.40472 0.910955 7.94459L3.1883 6.91323C2.72134 5.88213 2.61309 4.72436 2.88082 3.62457L0.451764 3.03324ZM0.933927 7.99257C0.847801 7.82209 0.810203 7.63122 0.825246 7.44081L3.31748 7.6377C3.33854 7.37114 3.2859 7.10391 3.16533 6.86524L0.933927 7.99257ZM0.825246 7.44081C0.840289 7.25041 0.907392 7.0678 1.01922 6.91296L3.04592 8.37669C3.20248 8.15992 3.29642 7.90427 3.31748 7.6377L0.825246 7.44081ZM1.01922 6.91296C1.13105 6.75813 1.28329 6.63702 1.45931 6.56287L2.42979 8.86682C2.67622 8.76302 2.88936 8.59346 3.04592 8.37669L1.01922 6.91296ZM1.45931 6.56287C1.63534 6.48872 1.82836 6.46441 2.01726 6.49257L1.64866 8.96524C1.91313 9.00467 2.18335 8.97062 2.42979 8.86682L1.45931 6.56287ZM2.07389 6.50234L1.14056 6.31901L0.658696 8.77213L1.59203 8.95547L2.07389 6.50234ZM1.09805 6.31142C0.832925 6.2688 0.561424 6.29086 0.306658 6.37575L1.0969 8.74756C0.969516 8.79 0.833765 8.80104 0.701204 8.77972L1.09805 6.31142ZM0.306658 6.37575C0.0518986 6.46063 -0.178584 6.60581 -0.365166 6.79894L1.43281 8.53597C1.33952 8.63253 1.22428 8.70512 1.0969 8.74756L0.306658 6.37575ZM-0.365166 6.79894C-0.551745 6.99206 -0.688897 7.22741 -0.764947 7.48495L1.6327 8.19296C1.59468 8.32173 1.5261 8.4394 1.43281 8.53597L-0.365166 6.79894ZM-0.764947 7.48495C-0.840996 7.74249 -0.853691 8.01459 -0.80195 8.27809L1.6512 7.79639C1.67707 7.92814 1.67073 8.06419 1.6327 8.19296L-0.764947 7.48495ZM-0.817537 8.17698C-0.724632 9.0028 -0.447188 9.79714 -0.00574243 10.5012L2.11236 9.1732C1.87007 8.78676 1.71778 8.35076 1.66679 7.89749L-0.817537 8.17698ZM-0.00574243 10.5012C0.435703 11.2053 1.02985 11.8011 1.73271 12.2445L3.06655 10.13C2.68077 9.88666 2.35466 9.55965 2.11236 9.1732L-0.00574243 10.5012ZM1.85476 12.3122C1.67865 12.2269 1.53012 12.0938 1.4262 11.928L3.54449 10.6002C3.39899 10.3681 3.19105 10.1817 2.94449 10.0622L1.85476 12.3122ZM1.4262 11.928C1.32228 11.7622 1.26715 11.5704 1.26715 11.3747H3.76715C3.76715 11.1008 3.68998 10.8324 3.54449 10.6002L1.4262 11.928ZM1.26715 11.3747C1.26715 11.1791 1.32227 10.9873 1.4262 10.8215L3.54449 12.1492C3.68998 11.9171 3.76715 11.6487 3.76715 11.3747H1.26715ZM1.4262 10.8215C1.53012 10.6557 1.67865 10.5225 1.85476 10.4372L2.94449 12.6872C3.19105 12.5678 3.39899 12.3814 3.54449 12.1492L1.4262 10.8215ZM1.93917 10.4001L1.4975 10.5751L2.41842 12.8993L2.86008 12.7243L1.93917 10.4001ZM1.49282 10.577C1.27828 10.663 1.08397 10.7927 0.92223 10.9579L2.7084 12.707C2.62753 12.7896 2.53037 12.8545 2.4231 12.8975L1.49282 10.577ZM0.92223 10.9579C0.760501 11.123 0.634894 11.32 0.55339 11.5363L2.89282 12.4178C2.85206 12.526 2.78926 12.6245 2.7084 12.707L0.92223 10.9579ZM0.55339 11.5363C0.471884 11.7526 0.436263 11.9835 0.44879 12.2143L2.94512 12.0788C2.95138 12.1942 2.93357 12.3097 2.89282 12.4178L0.55339 11.5363ZM0.44879 12.2143C0.461317 12.4451 0.521719 12.6708 0.626152 12.877L2.85643 11.7475C2.90865 11.8506 2.93885 11.9634 2.94512 12.0788L0.44879 12.2143ZM0.604393 12.8318C0.932664 13.5501 1.43025 14.1781 2.05449 14.6619L3.58592 12.6858C3.28126 12.4497 3.03841 12.1432 2.87819 11.7927L0.604393 12.8318ZM2.05449 14.6619C2.67873 15.1457 3.411 15.4708 4.18849 15.6095L4.62743 13.1483C4.24797 13.0806 3.89059 12.922 3.58592 12.6858L2.05449 14.6619ZM3.98149 15.5539C3.78041 15.4809 3.60666 15.3478 3.48387 15.1726L5.5311 13.7377C5.35919 13.4925 5.11594 13.3061 4.83443 13.2039L3.98149 15.5539ZM3.48387 15.1726C3.36108 14.9974 3.29522 14.7887 3.29522 14.5747H5.79522C5.79522 14.2753 5.70301 13.983 5.5311 13.7377L3.48387 15.1726ZM3.29522 14.5747C3.29522 14.3608 3.36108 14.1521 3.48387 13.9769L5.5311 15.4117C5.703 15.1665 5.79522 14.8742 5.79522 14.5747H3.29522ZM3.48387 13.9769C3.60666 13.8017 3.78041 13.6686 3.98149 13.5956L4.83443 15.9456C5.11594 15.8434 5.35919 15.657 5.5311 15.4117L3.48387 13.9769ZM3.93022 13.6155C2.95254 14.0198 1.90334 14.2228 0.845392 14.2123L0.820529 16.7122C2.21469 16.726 3.59732 16.4585 4.8857 15.9257L3.93022 13.6155ZM1.07811 14.2365C0.642509 14.1494 0.190154 14.2389 -0.179451 14.4853L1.2073 16.5654C1.02523 16.6868 0.802398 16.7309 0.587815 16.688L1.07811 14.2365ZM-0.179451 14.4853C-0.549056 14.7317 -0.805647 15.1148 -0.892766 15.5504L1.55869 16.0407C1.51577 16.2553 1.38937 16.444 1.2073 16.5654L-0.179451 14.4853ZM-0.892766 15.5504C-0.979883 15.986 -0.890396 16.4384 -0.643989 16.808L1.43614 15.4212C1.55752 15.6033 1.6016 15.8261 1.55869 16.0407L-0.892766 15.5504ZM-0.643989 16.808C-0.397583 17.1776 -0.0144414 17.4342 0.421148 17.5213L0.911439 15.0698C1.12602 15.1128 1.31475 15.2392 1.43614 15.4212L-0.643989 16.808ZM0.130638 17.425C2.41234 18.5071 4.89654 19.0962 7.4212 19.1536L7.47805 16.6542C5.30469 16.6048 3.16616 16.0977 1.20195 15.1662L0.130638 17.425ZM7.43056 19.1538C9.74314 19.189 12.0146 18.5401 13.9594 17.2884L12.6065 15.1861C11.076 16.1711 9.28853 16.6818 7.46869 16.6541L7.43056 19.1538ZM13.977 17.2769C15.5778 16.2083 16.8894 14.7602 17.7949 13.0616L15.5888 11.8856C14.8773 13.2202 13.8468 14.358 12.589 15.1976L13.977 17.2769ZM17.7949 13.0616C18.7003 11.3631 19.1714 9.46699 19.1663 7.54222L16.6663 7.54892C16.6704 9.06124 16.3002 10.5511 15.5888 11.8856L17.7949 13.0616ZM19.1663 7.54557V6.82057H16.6663V7.54557H19.1663ZM19.1662 6.83108C19.1652 6.95209 19.1379 7.07144 19.0861 7.18081L16.8267 6.1106C16.7231 6.32935 16.6684 6.56804 16.6663 6.81007L19.1662 6.83108ZM19.0861 7.18081C19.0342 7.29019 18.9592 7.38697 18.8662 7.46441L17.2663 5.5434C17.0804 5.6983 16.9303 5.89184 16.8267 6.1106L19.0861 7.18081ZM18.8677 7.46322L20.2343 6.32156L18.6316 4.40292L17.2649 5.54459L18.8677 7.46322Z" fill="white" mask="url(#path-1-inside-1_2237_1497)"/>
</svg>
